<svg width="163" height="163" viewBox="0 0 163 163" fill="none" xmlns="http://www.w3.org/2000/svg">
<path d="M62.37 25.748C49.1934 30.2693 38.044 39.3114 30.8994 51.2705C23.7548 63.2296 21.0768 77.3327 23.3406 91.0783C25.6043 104.824 32.6633 117.323 43.2656 126.36C53.8679 135.396 67.3281 140.385 81.2587 140.442C95.1893 140.499 108.69 135.621 119.366 126.671C130.042 117.722 137.203 105.281 139.579 91.554C141.955 77.8274 139.393 63.7029 132.346 51.6857C125.3 39.6685 114.225 30.5354 101.086 25.9065L94.8613 43.5744C103.825 46.7323 111.38 52.9628 116.187 61.1609C120.994 69.3589 122.742 78.9946 121.121 88.3588C119.5 97.723 114.615 106.21 107.332 112.316C100.049 118.421 90.8388 121.749 81.3354 121.71C71.832 121.671 62.6495 118.268 55.4167 112.103C48.1839 105.939 43.3682 97.4115 41.8239 88.0343C40.2796 78.6572 42.1065 69.0361 46.9805 60.8776C51.8545 52.7192 59.4606 46.5507 68.4496 43.4663L62.37 25.748Z" fill="#2D3436"/>
<circle cx="81.4999" cy="81.5001" r="21.051" fill="#2D3436"/>
</svg>
